Coordinates
version=1
nRows=8
nColumns=36
inDegrees=yes

Units are S.I. units (second, meters, Newtons, ...)
If the header above contains a line with 'inDegrees', this indicates whether rotational values are in degrees (yes) or radians (no).

endheader
time	pelvis_tilt	pelvis_list	pelvis_rotation	pelvis_tx	pelvis_ty	pelvis_tz	hip_flexion_r	hip_adduction_r	hip_rotation_r	knee_angle_r	knee_angle_r_beta	ankle_angle_r	subtalar_angle_r	mtp_angle_r	hip_flexion_l	hip_adduction_l	hip_rotation_l	knee_angle_l	knee_angle_l_beta	ankle_angle_l	subtalar_angle_l	mtp_angle_l	lumbar_extension	lumbar_bending	lumbar_rotation	arm_flex_r	arm_add_r	arm_rot_r	elbow_flex_r	pro_sup_r	arm_flex_l	arm_add_l	arm_rot_l	elbow_flex_l	pro_sup_l
      1.11000000	     -2.14533552	      6.58937000	      7.25915026	     -0.74309115	      1.47316644	     -0.55395176	      3.72186479	     -3.04215896	     -3.66879204	     39.18630559	      0.68393005	     -7.49002027	    -15.42781348	     -7.58852193	     24.87177894	      2.79927560	     -1.55118278	     47.02214775	      0.82069130	    -14.50944696	    -19.59940333	     -7.58852193	     -4.87810321	     -2.43566749	    -22.10554044	     84.47350923	    -19.12802356	     36.43059906	    101.44985224	    110.09055990	    -61.30570766	    -76.07511005	   -105.16513086	    120.29158093	     80.29151944
      1.12000000	     -1.55060392	      6.35404752	      7.14253795	     -0.73122407	      1.47662429	     -0.55451788	      3.95075040	     -3.05182024	     -4.15300084	     39.06639733	      0.68183726	     -7.80966577	    -16.49358028	     -7.58708501	     23.64319274	      2.80375476	     -1.13667132	     44.51842172	      0.77699304	    -14.95802238	    -18.80075438	     -7.58708501	     -5.40241077	     -2.13777034	    -22.24278811	     83.27240754	    -20.07337012	     37.20809297	    102.85832512	    110.39444938	    -61.97755421	    -74.37337188	   -104.62249401	    120.06791062	     80.26974248
      1.13000000	     -1.24890844	      6.06620170	      7.00108079	     -0.71946245	      1.47875040	     -0.55514708	      4.40804948	     -2.98952944	     -4.38848399	     38.52230945	      0.67234114	     -7.75268850	    -17.14690034	     -7.58645863	     22.77406596	      2.78747808	     -0.72105830	     42.12040524	      0.73513975	    -15.11163352	    -17.90350972	     -7.58645863	     -5.59083359	     -1.82731711	    -22.39215336	     81.95392197	    -20.90803250	     38.01794207	    104.01927947	    110.56609716	    -62.63963101	    -72.46954864	   -103.86563159	    119.79722272	     80.28743877
      1.14000000	     -0.87382976	      5.86642725	      6.81048972	     -0.70789209	      1.48013813	     -0.55580514	      4.69660100	     -3.03436060	     -4.66172863	     37.55533553	      0.65546426	     -7.89754676	    -17.95499393	     -7.58567627	     21.79290771	      2.84481975	     -0.30318530	     39.69127370	      0.69274341	    -15.13611035	    -16.65373586	     -7.58567627	     -6.00400275	     -1.57455540	    -22.58975546	     80.69345111	    -21.74861598	     38.92991107	    105.15582391	    110.72787572	    -63.13213021	    -70.28425792	   -103.12266498	    119.81366172	     80.37600373
      1.15000000	     -0.42983731	      5.57067607	      6.64995736	     -0.69647171	      1.48067677	     -0.55626931	      4.76138725	     -2.87808654	     -4.87767725	     36.00611367	      0.62842523	     -8.87099169	    -19.43372890	     -7.58221276	     20.82839579	      2.68475662	     -0.03170303	     37.45937640	      0.65378945	    -14.08387077	    -14.21716688	     -7.58221276	     -6.55203717	     -1.19686379	    -22.97144089	     79.50283226	    -22.39315442	     39.96023618	    105.96496863	    110.89133880	    -63.59450155	    -67.80634741	   -102.20634516	    119.87691426	     80.65042924
      1.16000000	     -0.16244794	      5.34955944	      6.49294660	     -0.68530393	      1.48011144	     -0.55674607	      5.02070113	     -2.88991559	     -5.17191223	     34.33763722	      0.59930483	     -9.08099587	    -19.60263653	     -7.57937160	     20.05795637	      2.67065062	      0.27509533	     35.15043259	      0.61349078	    -13.93823828	    -12.56681627	     -7.57937160	     -6.94279362	     -0.97027948	    -23.13573237	     78.16635520	    -23.30979605	     40.94102137	    106.91907072	    110.94091716	    -63.61410009	    -65.66604072	   -100.65080735	    119.92913493	     80.83105289
      1.17000000	     -0.06636734	      5.16619634	      6.31043527	     -0.67437313	      1.47831201	     -0.55707667	      5.51328505	     -2.94971597	     -5.36719162	     32.61344380	      0.56921197	     -9.39428220	    -19.22119409	     -7.57854802	     19.52619479	      2.68277002	      0.47937334	     32.88078688	      0.57387799	    -14.35575565	    -11.30647875	     -7.57854802	     -7.21536778	     -0.85159586	    -23.20457783	     76.79376702	    -24.36441455	     41.96661859	    107.86517181	    110.97180087	    -63.85320651	    -63.55160106	    -99.21198553	    120.01053985	     80.92252194
      1.18000000	      0.16048538	      4.90493107	      6.09502501	     -0.66351757	      1.47574461	     -0.55739904	      5.82737772	     -2.87678660	     -5.52864750	     30.61992568	      0.53441852	    -10.47447347	    -18.87773189	     -7.57187731	     18.85460931	      2.48328704	      0.37994024	     30.59172215	      0.53392628	    -14.19656491	     -9.34689348	     -7.57187731	     -7.52132167	     -0.53969310	    -22.54182498	     75.64426555	    -26.14096087	     43.29821522	    108.98958260	    110.91940606	    -61.43575596	    -62.62166166	    -95.55150874	    119.59448228	     81.96738159
